<?xml version="1.0" encoding="UTF-8" standalone="no"?>
<!DOCTYPE svg PUBLIC "-//W3C//DTD SVG 1.1//EN"
 "http://www.w3.org/Graphics/SVG/1.1/DTD/svg11.dtd">
<!-- Generated by graphviz version 2.38.0 (20140413.2041)
 -->
<!-- Title: G Pages: 1 -->
<svg width="646pt" height="304pt"
 viewBox="0.00 0.00 646.00 304.00" xmlns="http://www.w3.org/2000/svg" xmlns:xlink="http://www.w3.org/1999/xlink">
<g id="graph0" class="graph" transform="scale(1 1) rotate(0) translate(4 300)">
<title>G</title>
<polygon fill="white" stroke="none" points="-4,4 -4,-300 642,-300 642,4 -4,4"/>
<!-- 139941103165960 -->
<g id="node1" class="node"><title>139941103165960</title>
<polygon fill="none" stroke="black" points="166.5,-249.5 166.5,-295.5 471.5,-295.5 471.5,-249.5 166.5,-249.5"/>
<text text-anchor="middle" x="229" y="-268.8" font-family="Times,serif" font-size="14.00">input_1: InputLayer</text>
<polyline fill="none" stroke="black" points="291.5,-249.5 291.5,-295.5 "/>
<text text-anchor="middle" x="319" y="-280.3" font-family="Times,serif" font-size="14.00">input:</text>
<polyline fill="none" stroke="black" points="291.5,-272.5 346.5,-272.5 "/>
<text text-anchor="middle" x="319" y="-257.3" font-family="Times,serif" font-size="14.00">output:</text>
<polyline fill="none" stroke="black" points="346.5,-249.5 346.5,-295.5 "/>
<text text-anchor="middle" x="409" y="-280.3" font-family="Times,serif" font-size="14.00">(None, 320, 320, 4)</text>
<polyline fill="none" stroke="black" points="346.5,-272.5 471.5,-272.5 "/>
<text text-anchor="middle" x="409" y="-257.3" font-family="Times,serif" font-size="14.00">(None, 320, 320, 4)</text>
</g>
<!-- 139939966963272 -->
<g id="node2" class="node"><title>139939966963272</title>
<polygon fill="none" stroke="black" points="0,-166.5 0,-212.5 310,-212.5 310,-166.5 0,-166.5"/>
<text text-anchor="middle" x="65" y="-185.8" font-family="Times,serif" font-size="14.00">lambda_12: Lambda</text>
<polyline fill="none" stroke="black" points="130,-166.5 130,-212.5 "/>
<text text-anchor="middle" x="157.5" y="-197.3" font-family="Times,serif" font-size="14.00">input:</text>
<polyline fill="none" stroke="black" points="130,-189.5 185,-189.5 "/>
<text text-anchor="middle" x="157.5" y="-174.3" font-family="Times,serif" font-size="14.00">output:</text>
<polyline fill="none" stroke="black" points="185,-166.5 185,-212.5 "/>
<text text-anchor="middle" x="247.5" y="-197.3" font-family="Times,serif" font-size="14.00">(None, 320, 320, 4)</text>
<polyline fill="none" stroke="black" points="185,-189.5 310,-189.5 "/>
<text text-anchor="middle" x="247.5" y="-174.3" font-family="Times,serif" font-size="14.00">(None, 320, 320, 4)</text>
</g>
<!-- 139941103165960&#45;&gt;139939966963272 -->
<g id="edge1" class="edge"><title>139941103165960&#45;&gt;139939966963272</title>
<path fill="none" stroke="black" d="M274.186,-249.366C254.029,-239.41 230.067,-227.576 208.934,-217.138"/>
<polygon fill="black" stroke="black" points="210.276,-213.897 199.76,-212.607 207.176,-220.173 210.276,-213.897"/>
</g>
<!-- 139940906542864 -->
<g id="node3" class="node"><title>139940906542864</title>
<polygon fill="none" stroke="black" points="328,-166.5 328,-212.5 638,-212.5 638,-166.5 328,-166.5"/>
<text text-anchor="middle" x="393" y="-185.8" font-family="Times,serif" font-size="14.00">lambda_23: Lambda</text>
<polyline fill="none" stroke="black" points="458,-166.5 458,-212.5 "/>
<text text-anchor="middle" x="485.5" y="-197.3" font-family="Times,serif" font-size="14.00">input:</text>
<polyline fill="none" stroke="black" points="458,-189.5 513,-189.5 "/>
<text text-anchor="middle" x="485.5" y="-174.3" font-family="Times,serif" font-size="14.00">output:</text>
<polyline fill="none" stroke="black" points="513,-166.5 513,-212.5 "/>
<text text-anchor="middle" x="575.5" y="-197.3" font-family="Times,serif" font-size="14.00">(None, 320, 320, 4)</text>
<polyline fill="none" stroke="black" points="513,-189.5 638,-189.5 "/>
<text text-anchor="middle" x="575.5" y="-174.3" font-family="Times,serif" font-size="14.00">(None, 320, 320, 4)</text>
</g>
<!-- 139941103165960&#45;&gt;139940906542864 -->
<g id="edge2" class="edge"><title>139941103165960&#45;&gt;139940906542864</title>
<path fill="none" stroke="black" d="M363.814,-249.366C383.971,-239.41 407.933,-227.576 429.066,-217.138"/>
<polygon fill="black" stroke="black" points="430.824,-220.173 438.24,-212.607 427.724,-213.897 430.824,-220.173"/>
</g>
<!-- 139939971312440 -->
<g id="node4" class="node"><title>139939971312440</title>
<polygon fill="none" stroke="black" points="175,-83.5 175,-129.5 463,-129.5 463,-83.5 175,-83.5"/>
<text text-anchor="middle" x="229" y="-102.8" font-family="Times,serif" font-size="14.00">model_2: Model</text>
<polyline fill="none" stroke="black" points="283,-83.5 283,-129.5 "/>
<text text-anchor="middle" x="310.5" y="-114.3" font-family="Times,serif" font-size="14.00">input:</text>
<polyline fill="none" stroke="black" points="283,-106.5 338,-106.5 "/>
<text text-anchor="middle" x="310.5" y="-91.3" font-family="Times,serif" font-size="14.00">output:</text>
<polyline fill="none" stroke="black" points="338,-83.5 338,-129.5 "/>
<text text-anchor="middle" x="400.5" y="-114.3" font-family="Times,serif" font-size="14.00">(None, 320, 320, 4)</text>
<polyline fill="none" stroke="black" points="338,-106.5 463,-106.5 "/>
<text text-anchor="middle" x="400.5" y="-91.3" font-family="Times,serif" font-size="14.00">(None, 320, 320, 1)</text>
</g>
<!-- 139939966963272&#45;&gt;139939971312440 -->
<g id="edge3" class="edge"><title>139939966963272&#45;&gt;139939971312440</title>
<path fill="none" stroke="black" d="M199.814,-166.366C219.971,-156.41 243.933,-144.576 265.066,-134.138"/>
<polygon fill="black" stroke="black" points="266.824,-137.173 274.24,-129.607 263.724,-130.897 266.824,-137.173"/>
</g>
<!-- 139940906542864&#45;&gt;139939971312440 -->
<g id="edge4" class="edge"><title>139940906542864&#45;&gt;139939971312440</title>
<path fill="none" stroke="black" d="M438.186,-166.366C418.029,-156.41 394.067,-144.576 372.934,-134.138"/>
<polygon fill="black" stroke="black" points="374.276,-130.897 363.76,-129.607 371.176,-137.173 374.276,-130.897"/>
</g>
<!-- 139939974831184 -->
<g id="node5" class="node"><title>139939974831184</title>
<polygon fill="none" stroke="black" points="76.5,-0.5 76.5,-46.5 561.5,-46.5 561.5,-0.5 76.5,-0.5"/>
<text text-anchor="middle" x="167" y="-19.8" font-family="Times,serif" font-size="14.00">refinement_pred: Concatenate</text>
<polyline fill="none" stroke="black" points="257.5,-0.5 257.5,-46.5 "/>
<text text-anchor="middle" x="285" y="-31.3" font-family="Times,serif" font-size="14.00">input:</text>
<polyline fill="none" stroke="black" points="257.5,-23.5 312.5,-23.5 "/>
<text text-anchor="middle" x="285" y="-8.3" font-family="Times,serif" font-size="14.00">output:</text>
<polyline fill="none" stroke="black" points="312.5,-0.5 312.5,-46.5 "/>
<text text-anchor="middle" x="437" y="-31.3" font-family="Times,serif" font-size="14.00">[(None, 320, 320, 1), (None, 320, 320, 1)]</text>
<polyline fill="none" stroke="black" points="312.5,-23.5 561.5,-23.5 "/>
<text text-anchor="middle" x="437" y="-8.3" font-family="Times,serif" font-size="14.00">(None, 320, 320, 1)</text>
</g>
<!-- 139939971312440&#45;&gt;139939974831184 -->
<g id="edge5" class="edge"><title>139939971312440&#45;&gt;139939974831184</title>
<path fill="none" stroke="black" d="M319,-83.3664C319,-75.1516 319,-65.6579 319,-56.7252"/>
<polygon fill="black" stroke="black" points="322.5,-56.6068 319,-46.6068 315.5,-56.6069 322.5,-56.6068"/>
</g>
</g>
</svg>
